HIERARCHY
ROOT Hips
{
    OFFSET 0.000000 0.000000 0.000000
    CHANNELS 6 Xposition Yposition Zposition Zrotation Xrotation Yrotation
    JOINT Spine
    {
        OFFSET -0.000000 8.250426 0.000000
        CHANNELS 3 Zrotation Xrotation Yrotation
        JOINT Spine1
        {
            OFFSET -0.000000 26.973461 0.000000
            CHANNELS 3 Zrotation Xrotation Yrotation
            JOINT Neck
            {
                OFFSET -0.000000 26.862686 2.442063
                CHANNELS 3 Zrotation Xrotation Yrotation
                JOINT Head
                {
                    OFFSET -0.000000 14.086093 -2.012299
                    CHANNELS 3 Zrotation Xrotation Yrotation
                    End Site
                    {
                        OFFSET -0.000000 25.153738 0.000000
                    }
                }
            }
            JOINT LeftShoulder
            {
                OFFSET 4.034606 23.897446 -0.313550
                CHANNELS 3 Zrotation Xrotation Yrotation
                JOINT LeftArm
                {
                    OFFSET 14.610420 0.000000 0.000000
                    CHANNELS 3 Zrotation Xrotation Yrotation
                    JOINT LeftForeArm
                    {
                        OFFSET 28.890345 0.000000 0.000000
                        CHANNELS 3 Zrotation Xrotation Yrotation
                        JOINT LeftHand
                        {
                            OFFSET 28.816763 0.000000 0.000000
                            CHANNELS 3 Zrotation Xrotation Yrotation
                            End Site
                            {
                                OFFSET 15.092243 0.000000 0.000000
                            }
                        }
                    }
                }
            }
            JOINT RightShoulder
            {
                OFFSET -4.014012 23.897446 -0.313550
                CHANNELS 3 Zrotation Xrotation Yrotation
                JOINT RightArm
                {
                    OFFSET -14.610420 0.000000 0.000000
                    CHANNELS 3 Zrotation Xrotation Yrotation
                    JOINT RightForeArm
                    {
                        OFFSET -28.890345 0.000000 0.000000
                        CHANNELS 3 Zrotation Xrotation Yrotation
                        JOINT RightHand
                        {
                            OFFSET -28.816763 0.000000 0.000000
                            CHANNELS 3 Zrotation Xrotation Yrotation
                            End Site
                            {
                                OFFSET -15.092243 0.000000 0.000000
                            }
                        }
                    }
                }
            }
        }
    }
    JOINT LeftUpLeg
    {
        OFFSET 10.061496 0.000000 0.000000
        CHANNELS 3 Zrotation Xrotation Yrotation
        JOINT LeftLeg
        {
            OFFSET -0.000000 -36.089622 0.000000
            CHANNELS 3 Zrotation Xrotation Yrotation
            JOINT LeftFoot
            {
                OFFSET -0.000000 -47.113575 0.000000
                CHANNELS 3 Zrotation Xrotation Yrotation
                JOINT LeftToeBase
                {
                    OFFSET -0.000000 -6.539971 15.092243
                    CHANNELS 3 Zrotation Xrotation Yrotation
                    End Site
                    {
                        OFFSET -0.000000 0.000000 4.024598
                    }
                }
            }
        }
    }
    JOINT RightUpLeg
    {
        OFFSET -10.061496 0.000000 0.000000
        CHANNELS 3 Zrotation Xrotation Yrotation
        JOINT RightLeg
        {
            OFFSET -0.000000 -36.089622 0.000000
            CHANNELS 3 Zrotation Xrotation Yrotation
            JOINT RightFoot
            {
                OFFSET -0.000000 -47.113575 0.000000
                CHANNELS 3 Zrotation Xrotation Yrotation
                JOINT RightToeBase
                {
                    OFFSET -0.000000 -6.539971 15.092243
                    CHANNELS 3 Zrotation Xrotation Yrotation
                    End Site
                    {
                        OFFSET -0.000000 0.000000 4.024598
                    }
                }
            }
        }
    }
}
MOTION
Frames:    9
Frame Time:    0.004000
-19.048243    125.582214    -78.093628    -4.366282    -2.690679    5.124786    6.471087    6.737974    5.205364    5.515552    16.370407    4.792912    12.594350    39.768822    -1.469942    0.831583    13.426092    1.527799    -3.766221    21.003908    3.483736    -47.454823    48.440018    -26.689325    8.425711    -12.493915    -22.632107    15.399848    -11.401832    -4.237704    1.579624    20.055111    10.047500    23.683870    45.294453    43.376064    -28.188210    -20.831095    17.543022    -15.962498    -15.566847    -7.838334    4.744850    -20.508219    0.421568    -4.825815    35.227989    -14.832176    10.354410    -13.192606    23.989883    0.000000    0.000000    0.000000    5.231081    -7.415776    -2.659930    5.454128    25.308187    -0.269135    -2.213526    -17.285303    -6.589653    0.000000    0.000000    0.000000    
-19.002724    125.607422    -77.882103    -4.312770    -2.754366    5.137168    6.379399    6.646800    5.149135    5.388144    16.395670    4.743317    12.597145    39.810871    -1.418689    0.792277    13.479806    1.586355    -3.811537    20.958302    3.454770    -47.423489    48.206764    -26.686180    8.425176    -12.376761    -22.634802    15.778929    -11.293555    -4.203994    1.617184    20.160578    10.001152    23.742388    45.182423    43.458649    -28.076063    -20.821379    17.605091    -16.059095    -15.568892    -7.720122    4.615597    -20.331409    0.138888    -4.881328    35.274937    -14.834079    10.200830    -13.247237    24.254377    0.000000    0.000000    0.000000    5.156956    -7.316413    -2.722497    5.452737    25.508516    -0.363763    -2.078364    -17.311926    -6.489316    0.000000    0.000000    0.000000    
-18.952019    125.635437    -77.668327    -4.242607    -2.797822    5.153347    6.271152    6.534212    5.095200    5.257215    16.412127    4.695020    12.608593    39.906387    -1.373999    0.718875    13.431285    1.647707    -3.850302    20.989119    3.381487    -47.343018    47.972286    -26.744234    8.496945    -12.315040    -22.607376    15.766530    -11.251927    -4.445785    1.655705    20.155163    9.959006    23.881618    45.239677    43.437946    -28.061195    -20.878439    17.671528    -16.056433    -15.625827    -7.632330    4.595072    -20.108818    -0.382773    -5.370209    35.203007    -14.663429    10.294019    -13.218917    24.762449    0.000000    0.000000    0.000000    5.055145    -7.159085    -2.066062    5.806138    25.490942    -1.321024    -1.870434    -17.355272    -6.292984    0.000000    0.000000    0.000000    
-18.904316    125.665375    -77.447601    -4.167335    -2.872102    5.170167    6.169445    6.438467    5.039905    5.101674    16.460117    4.649005    12.522635    39.916119    -1.286847    0.807900    13.525642    1.720386    -3.855185    21.002831    3.348238    -47.253956    47.698006    -26.868683    8.517793    -12.196271    -22.581757    16.159744    -11.129370    -4.328052    1.714051    20.170773    9.921618    23.997026    45.281773    43.422234    -28.024137    -20.802958    17.806475    -16.262186    -15.496011    -7.712961    4.440762    -19.877033    -0.506676    -5.305447    35.201988    -14.900030    10.228095    -13.235320    25.063156    0.000000    0.000000    0.000000    4.951042    -7.089354    -2.070495    5.855896    25.737812    -1.583376    -1.621864    -17.368454    -6.094947    0.000000    0.000000    0.000000    
-18.858164    125.697067    -77.225906    -4.081468    -2.979374    5.189862    6.056291    6.386643    4.983154    4.932228    16.493483    4.606205    12.687295    39.967377    -1.394456    0.519360    13.619572    1.648377    -3.827927    20.955040    3.284737    -47.223969    47.559303    -26.901009    8.619761    -12.132817    -22.554014    16.291056    -11.068933    -4.443589    1.778498    20.237297    9.866652    24.171610    45.118752    43.414459    -27.829966    -20.643538    17.959156    -16.466251    -15.319407    -7.659545    4.293501    -19.587370    -0.608365    -5.353279    35.183369    -14.674053    10.233671    -13.246771    25.169209    0.000000    0.000000    0.000000    4.827918    -6.995312    -2.069043    5.936464    26.011242    -1.825767    -1.443635    -17.358271    -5.958487    0.000000    0.000000    0.000000    
-18.805861    125.729416    -77.011612    -3.988598    -3.052629    5.200317    5.931766    6.305650    4.931526    4.796950    16.520849    4.561870    12.640306    40.015789    -1.327801    0.495135    13.656985    1.712433    -3.874978    20.949219    3.227476    -47.108521    47.368851    -26.961744    8.671454    -12.085453    -22.559650    16.405025    -11.002276    -4.352382    1.796453    20.250181    9.827667    24.311371    45.166462    43.404205    -27.782694    -20.609560    18.034472    -16.476431    -15.290599    -7.533597    4.141665    -19.321508    -0.712511    -5.319342    35.120216    -14.814975    10.142420    -13.275634    25.377554    0.000000    0.000000    0.000000    4.699083    -6.988470    -2.132289    5.964921    26.367117    -2.076341    -1.141805    -17.361271    -5.723779    0.000000    0.000000    0.000000    
-18.772940    125.750076    -76.799332    -3.909214    -3.188767    5.244447    5.813069    6.311905    4.859290    4.666695    16.509245    4.502808    12.587453    40.090252    -1.260349    0.471878    13.656412    1.779654    -3.901513    20.815155    3.119238    -47.115585    47.277489    -26.836145    8.721833    -12.073453    -22.585705    16.729231    -10.984186    -4.307849    1.835766    20.301769    9.787936    24.319143    45.301178    43.492928    -27.841421    -20.632027    18.015900    -16.425097    -15.314916    -7.513232    4.043066    -19.021332    -0.784713    -5.307719    35.092350    -14.963224    10.134006    -13.300020    25.528431    0.000000    0.000000    0.000000    4.578691    -6.929777    -2.041270    6.143107    26.726633    -2.518735    -0.637304    -17.500776    -5.567099    0.000000    0.000000    0.000000    
-18.722557    125.777161    -76.592194    -3.811468    -3.250532    5.254520    5.698000    6.230392    4.807713    4.479309    16.525923    4.467375    12.627153    40.074966    -1.100528    0.415403    13.712696    1.952267    -3.910137    20.780140    3.044905    -47.011608    47.140564    -26.890266    8.883095    -11.998185    -22.547909    16.668455    -10.895674    -4.433813    1.895146    20.383448    9.742238    24.404030    45.292065    43.516479    -27.806801    -20.588699    18.138376    -16.476574    -15.214410    -7.713549    3.903245    -18.757387    -0.817561    -5.251224    35.009373    -15.095734    10.062920    -13.341746    25.645941    0.000000    0.000000    0.000000    4.412625    -6.981982    -1.935449    6.332702    27.149315    -3.013108    -0.346148    -17.511852    -5.336246    0.000000    0.000000    0.000000    
-18.668789    125.803970    -76.384392    -3.718330    -3.306593    5.279201    5.580581    6.136441    4.744552    4.299752    16.581762    4.417175    12.622490    39.960224    -1.010318    0.345394    13.914723    2.026481    -3.907975    20.706472    3.028947    -46.944305    46.972427    -26.953159    8.952115    -11.909129    -22.561546    16.956053    -10.794725    -4.379107    1.906494    20.367487    9.649094    24.484873    45.321651    43.626411    -27.675684    -20.490543    18.220970    -16.603302    -15.098869    -7.764885    3.775035    -18.535690    -0.865162    -5.158496    34.930252    -15.592696    9.978026    -13.284984    25.929840    0.000000    0.000000    0.000000    4.285011    -7.071788    -2.000250    6.363251    27.619141    -3.453591    0.003402    -17.545202    -4.945216    0.000000    0.000000    0.000000    
